<?xml version="1.0" standalone="no"?><!DOCTYPE svg PUBLIC "-//W3C//DTD SVG 1.1//EN" "http://www.w3.org/Graphics/SVG/1.1/DTD/svg11.dtd"><svg t="1772209460468" class="icon" viewBox="0 0 1024 1024" version="1.1" xmlns="http://www.w3.org/2000/svg" p-id="5762" xmlns:xlink="http://www.w3.org/1999/xlink" width="200" height="200"><path d="M675.136 439.84c-26.56 0-48.096-21.504-48.096-48.064a114.176 114.176 0 0 0-228.32 0 48.064 48.064 0 0 1-96.16 0 210.336 210.336 0 0 1 420.64 0c0 26.56-21.504 48.064-48.064 48.064z m147.2 0c-26.528 0-48.064-21.504-48.064-48.064a261.408 261.408 0 1 0-522.784 0 48.064 48.064 0 0 1-96.16 0c0-197.472 160.096-357.568 357.536-357.568 197.472 0 357.568 160.096 357.568 357.568 0 26.56-21.536 48.064-48.064 48.064z m112.704 165.28H562.464v-165.28a48.064 48.064 0 0 0-96.16 0v165.28H93.728c-33.184 0-60.096 26.88-60.096 60.096v268.896c0 33.184 26.912 60.096 60.096 60.096h841.28c33.216 0 60.128-26.88 60.128-60.096v-268.928a60.096 60.096 0 0 0-60.096-60.064zM181.856 847.744a48.096 48.096 0 1 1 0-96.192 48.096 48.096 0 0 1 0 96.192z m145.696 0a48.064 48.064 0 1 1 0-96.16 48.064 48.064 0 0 1 0 96.16z" fill="#000000" p-id="5763"></path></svg>